<svg version="1.1" viewBox="0.0 0.0 628.1811023622047 562.7270341207349" fill="none" stroke="none" stroke-linecap="square" stroke-miterlimit="10" xmlns:xlink="http://www.w3.org/1999/xlink" xmlns="http://www.w3.org/2000/svg"><clipPath id="p.0"><path d="m0 0l628.1811 0l0 562.72705l-628.1811 0l0 -562.72705z" clip-rule="nonzero"/></clipPath><g clip-path="url(#p.0)"><path fill="#000000" fill-opacity="0.0" d="m0 0l628.1811 0l0 562.72705l-628.1811 0z" fill-rule="evenodd"/><path fill="#ffffff" d="m63.633858 281.36353c0 -135.3837 112.13328 -245.13387 250.4567 -245.13387c66.42526 0 130.12988 25.826527 177.09964 71.79804c46.969727 45.97152 73.357056 108.32227 73.357056 173.33582c0 135.3837 -112.13327 245.13385 -250.4567 245.13385c-138.32341 0 -250.4567 -109.75015 -250.4567 -245.13385z" fill-rule="evenodd"/><path stroke="#000000" stroke-width="4.0" stroke-linejoin="round" stroke-linecap="butt" d="m63.633858 281.36353c0 -135.3837 112.13328 -245.13387 250.4567 -245.13387c66.42526 0 130.12988 25.826527 177.09964 71.79804c46.969727 45.97152 73.357056 108.32227 73.357056 173.33582c0 135.3837 -112.13327 245.13385 -250.4567 245.13385c-138.32341 0 -250.4567 -109.75015 -250.4567 -245.13385z" fill-rule="evenodd"/><path fill="#000000" d="m246.4377 281.36484c0 -36.589966 30.289505 -66.25198 67.65355 -66.25198c17.94284 0 35.150757 6.9801025 47.838257 19.404755c12.6875 12.424652 19.815277 29.276093 19.815277 46.84723c0 36.589935 -30.28952 66.25195 -67.653534 66.25195c-37.364044 0 -67.65355 -29.662018 -67.65355 -66.25195z" fill-rule="evenodd"/><path stroke="#000000" stroke-width="1.0" stroke-linejoin="round" stroke-linecap="butt" d="m246.4377 281.36484c0 -36.589966 30.289505 -66.25198 67.65355 -66.25198c17.94284 0 35.150757 6.9801025 47.838257 19.404755c12.6875 12.424652 19.815277 29.276093 19.815277 46.84723c0 36.589935 -30.28952 66.25195 -67.653534 66.25195c-37.364044 0 -67.65355 -29.662018 -67.65355 -66.25195z" fill-rule="evenodd"/><path fill="#000000" d="m303.79266 198.40427c0 -1.6641388 1.3490295 -3.0131836 3.0131836 -3.0131836l12.052368 0c0.7991333 0 1.5655518 0.3174591 2.1306458 0.88253784c0.5650635 0.56507874 0.88253784 1.3314972 0.88253784 2.1306458l0 22.383072c0 1.6641388 -1.34906 3.0131836 -3.0131836 3.0131836l-12.052368 0c-1.664154 0 -3.0131836 -1.3490448 -3.0131836 -3.0131836z" fill-rule="evenodd"/><path stroke="#000000" stroke-width="1.0" stroke-linejoin="round" stroke-linecap="butt" d="m303.79266 198.40427c0 -1.6641388 1.3490295 -3.0131836 3.0131836 -3.0131836l12.052368 0c0.7991333 0 1.5655518 0.3174591 2.1306458 0.88253784c0.5650635 0.56507874 0.88253784 1.3314972 0.88253784 2.1306458l0 22.383072c0 1.6641388 -1.34906 3.0131836 -3.0131836 3.0131836l-12.052368 0c-1.664154 0 -3.0131836 -1.3490448 -3.0131836 -3.0131836z" fill-rule="evenodd"/><path fill="#000000" d="m303.79266 340.1654c0 -1.6641235 1.3490295 -3.0131836 3.0131836 -3.0131836l12.052368 0c0.7991333 0 1.5655518 0.31747437 2.1306458 0.88253784c0.5650635 0.565094 0.88253784 1.3315125 0.88253784 2.1306458l0 22.383087c0 1.664154 -1.34906 3.0131836 -3.0131836 3.0131836l-12.052368 0c-1.664154 0 -3.0131836 -1.3490295 -3.0131836 -3.0131836z" fill-rule="evenodd"/><path stroke="#000000" stroke-width="1.0" stroke-linejoin="round" stroke-linecap="butt" d="m303.79266 340.1654c0 -1.6641235 1.3490295 -3.0131836 3.0131836 -3.0131836l12.052368 0c0.7991333 0 1.5655518 0.31747437 2.1306458 0.88253784c0.5650635 0.565094 0.88253784 1.3315125 0.88253784 2.1306458l0 22.383087c0 1.664154 -1.34906 3.0131836 -3.0131836 3.0131836l-12.052368 0c-1.664154 0 -3.0131836 -1.3490295 -3.0131836 -3.0131836z" fill-rule="evenodd"/><path fill="#000000" d="m251.20992 272.32285c1.6641388 0 3.0131836 1.3490295 3.0131836 3.0131836l0 12.052368c0 0.7991333 -0.3174591 1.5655518 -0.88253784 2.1306458c-0.565094 0.5650635 -1.3314972 0.88253784 -2.1306458 0.88253784l-22.383087 0c-1.6641388 0 -3.0131836 -1.34906 -3.0131836 -3.0131836l0 -12.052368c0 -1.664154 1.3490448 -3.0131836 3.0131836 -3.0131836z" fill-rule="evenodd"/><path stroke="#000000" stroke-width="1.0" stroke-linejoin="round" stroke-linecap="butt" d="m251.20992 272.32285c1.6641388 0 3.0131836 1.3490295 3.0131836 3.0131836l0 12.052368c0 0.7991333 -0.3174591 1.5655518 -0.88253784 2.1306458c-0.565094 0.5650635 -1.3314972 0.88253784 -2.1306458 0.88253784l-22.383087 0c-1.6641388 0 -3.0131836 -1.34906 -3.0131836 -3.0131836l0 -12.052368c0 -1.664154 1.3490448 -3.0131836 3.0131836 -3.0131836z" fill-rule="evenodd"/><path fill="#000000" d="m264.7964 317.99097c1.1770935 -1.1770935 3.0854797 -1.1770935 4.2625732 0l8.524841 8.524841c0.5652466 0.5652466 0.8828125 1.3318787 0.8828125 2.1312866c0 0.79937744 -0.31756592 1.5660095 -0.8828125 2.131256l-15.83194 15.83194c-1.177063 1.177063 -3.0854797 1.177063 -4.2625427 0l-8.524857 -8.524841c-1.177063 -1.177063 -1.177063 -3.0854797 0 -4.2625732z" fill-rule="evenodd"/><path stroke="#000000" stroke-width="1.0" stroke-linejoin="round" stroke-linecap="butt" d="m264.7964 317.99097c1.1770935 -1.1770935 3.0854797 -1.1770935 4.2625732 0l8.524841 8.524841c0.5652466 0.5652466 0.8828125 1.3318787 0.8828125 2.1312866c0 0.79937744 -0.31756592 1.5660095 -0.8828125 2.131256l-15.83194 15.83194c-1.177063 1.177063 -3.0854797 1.177063 -4.2625427 0l-8.524857 -8.524841c-1.177063 -1.177063 -1.177063 -3.0854797 0 -4.2625732z" fill-rule="evenodd"/><path fill="#000000" d="m366.82788 217.24292c1.1770935 -1.177063 3.0855103 -1.177063 4.2625732 0l8.524841 8.524857c0.5652466 0.5652466 0.8828125 1.3318939 0.8828125 2.1312714c0 0.79937744 -0.31756592 1.5660248 -0.8828125 2.1312714l-15.83194 15.83194c-1.177063 1.1770782 -3.0854797 1.1770782 -4.2625427 0l-8.524841 -8.524841c-1.1770935 -1.1770782 -1.1770935 -3.085495 0 -4.262558z" fill-rule="evenodd"/><path stroke="#000000" stroke-width="1.0" stroke-linejoin="round" stroke-linecap="butt" d="m366.82788 217.24292c1.1770935 -1.177063 3.0855103 -1.177063 4.2625732 0l8.524841 8.524857c0.5652466 0.5652466 0.8828125 1.3318939 0.8828125 2.1312714c0 0.79937744 -0.31756592 1.5660248 -0.8828125 2.1312714l-15.83194 15.83194c-1.177063 1.1770782 -3.0854797 1.1770782 -4.2625427 0l-8.524841 -8.524841c-1.1770935 -1.1770782 -1.1770935 -3.085495 0 -4.262558z" fill-rule="evenodd"/><path fill="#000000" d="m396.52487 272.32285c1.6641235 0 3.0131836 1.3490295 3.0131836 3.0131836l0 12.052368c0 0.7991333 -0.31744385 1.5655518 -0.88253784 2.1306458c-0.565094 0.5650635 -1.3315125 0.88253784 -2.1306458 0.88253784l-22.383087 0c-1.6641235 0 -3.0131836 -1.34906 -3.0131836 -3.0131836l0 -12.052368c0 -1.664154 1.34906 -3.0131836 3.0131836 -3.0131836z" fill-rule="evenodd"/><path stroke="#000000" stroke-width="1.0" stroke-linejoin="round" stroke-linecap="butt" d="m396.52487 272.32285c1.6641235 0 3.0131836 1.3490295 3.0131836 3.0131836l0 12.052368c0 0.7991333 -0.31744385 1.5655518 -0.88253784 2.1306458c-0.565094 0.5650635 -1.3315125 0.88253784 -2.1306458 0.88253784l-22.383087 0c-1.6641235 0 -3.0131836 -1.34906 -3.0131836 -3.0131836l0 -12.052368c0 -1.664154 1.34906 -3.0131836 3.0131836 -3.0131836z" fill-rule="evenodd"/><path fill="#000000" d="m274.3113 233.65614c1.177063 1.177063 1.177063 3.0854797 0 4.2625427l-8.524841 8.524857c-0.5652466 0.5652466 -1.3319092 0.88279724 -2.1312866 0.88279724c-0.79937744 0 -1.56604 -0.31755066 -2.1312866 -0.88279724l-15.831924 -15.83194c-1.1770782 -1.177063 -1.1770782 -3.0854797 0 -4.2625427l8.524841 -8.524857c1.1770782 -1.177063 3.085495 -1.177063 4.262558 0z" fill-rule="evenodd"/><path stroke="#000000" stroke-width="1.0" stroke-linejoin="round" stroke-linecap="butt" d="m274.3113 233.65614c1.177063 1.177063 1.177063 3.0854797 0 4.2625427l-8.524841 8.524857c-0.5652466 0.5652466 -1.3319092 0.88279724 -2.1312866 0.88279724c-0.79937744 0 -1.56604 -0.31755066 -2.1312866 -0.88279724l-15.831924 -15.83194c-1.1770782 -1.177063 -1.1770782 -3.0854797 0 -4.2625427l8.524841 -8.524857c1.1770782 -1.177063 3.085495 -1.177063 4.262558 0z" fill-rule="evenodd"/><path fill="#000000" d="m368.99634 333.82413c1.1770935 1.177063 1.1770935 3.0854797 0 4.2625427l-8.524841 8.524841c-0.5652466 0.5652466 -1.3318787 0.8828125 -2.1312866 0.8828125c-0.79937744 0 -1.5660095 -0.31756592 -2.131256 -0.8828125l-15.83194 -15.83194c-1.177063 -1.177063 -1.177063 -3.0854797 0 -4.2625427l8.524841 -8.524841c1.177063 -1.177063 3.0854797 -1.177063 4.2625427 0z" fill-rule="evenodd"/><path stroke="#000000" stroke-width="1.0" stroke-linejoin="round" stroke-linecap="butt" d="m368.99634 333.82413c1.1770935 1.177063 1.1770935 3.0854797 0 4.2625427l-8.524841 8.524841c-0.5652466 0.5652466 -1.3318787 0.8828125 -2.1312866 0.8828125c-0.79937744 0 -1.5660095 -0.31756592 -2.131256 -0.8828125l-15.83194 -15.83194c-1.177063 -1.177063 -1.177063 -3.0854797 0 -4.2625427l8.524841 -8.524841c1.177063 -1.177063 3.0854797 -1.177063 4.2625427 0z" fill-rule="evenodd"/><path fill="#000000" fill-opacity="0.0" d="m-8.839895 180.46982l607.4961 0l0 190.4252l-607.4961 0z" fill-rule="evenodd"/><path fill="#000000" d="m145.85515 306.59482l-65.42188 -28.453125l0 -15.75l65.42188 -28.3125l0 18.546875l-45.640633 17.453125l45.640633 18.09375l0 18.421875zm10.158417 -15.8125l0 -15.625q4.75 -0.265625 7.15625 -1.4375q2.40625 -1.171875 4.15625 -3.9375q1.765625 -2.765625 2.421875 -6.9375q0.515625 -3.125 0.515625 -10.875q0 -12.625 1.171875 -17.59375q1.171875 -4.984375 4.234375 -8.015625q3.0625 -3.03125 8.921875 -4.78125q3.96875 -1.171875 12.5 -1.171875l3.453125 0l0 15.5625q-7.234375 0 -9.28125 0.8125q-2.046875 0.8125 -3.03125 2.46875q-0.96875 1.65625 -0.96875 5.703125q0 4.09375 -0.59375 15.546875q-0.3125 6.453125 -1.6875 10.453125q-1.359375 4.0 -3.484375 6.609375q-2.109375 2.609375 -6.46875 5.40625q3.828125 2.203125 6.265625 5.171875q2.453125 2.96875 3.75 7.203125q1.3125 4.21875 1.703125 11.3125q0.453125 10.8125 0.453125 13.8125q0 4.296875 1.03125 5.984375q1.046875 1.6875 3.15625 2.5625q2.125 0.890625 9.15625 0.890625l0 15.625l-3.453125 0q-8.78125 0 -13.46875 -1.40625q-4.6875 -1.390625 -7.921875 -4.65625q-3.21875 -3.25 -4.328125 -8.046875q-1.109375 -4.78125 -1.109375 -15.0625q0 -11.96875 -1.03125 -15.5625q-1.4375 -5.203125 -4.34375 -7.4375q-2.890625 -2.25 -8.875 -2.578125zm280.6471 0q-4.75 0.25 -7.15625 1.421875q-2.40625 1.171875 -4.140625 3.953125q-1.71875 2.765625 -2.4375 6.921875q-0.515625 3.125 -0.515625 10.8125q0 12.625 -1.140625 17.640625q-1.140625 5.015625 -4.203125 8.03125q-3.0625 3.03125 -8.984375 4.796875q-3.96875 1.171875 -12.5 1.171875l-3.453125 0l0 -15.625q6.96875 0 9.109375 -0.890625q2.15625 -0.875 3.15625 -2.53125q1.015625 -1.65625 1.046875 -5.625q0.046875 -3.96875 0.5625 -15.171875q0.328125 -6.765625 1.75 -10.828125q1.4375 -4.078125 3.8125 -6.90625q2.375 -2.84375 6.09375 -4.984375q-4.828125 -3.125 -7.03125 -6.125q-3.0625 -4.296875 -4.171875 -10.9375q-0.71875 -4.5625 -1.046875 -20.046875q-0.0625 -4.890625 -0.875 -6.515625q-0.8125 -1.625 -2.9375 -2.5q-2.109375 -0.875 -9.46875 -0.875l0 -15.5625l3.453125 0q8.796875 0 13.484375 1.375q4.6875 1.359375 7.875 4.65625q3.1875 3.28125 4.328125 8.0625q1.140625 4.78125 1.140625 15.0625q0 11.921875 0.96875 15.5625q1.4375 5.203125 4.359375 7.453125q2.9375 2.25 8.921875 2.578125l0 15.625zm4.2453613 28.3125l23.625 -98.6875l13.734375 0l-23.890625 98.6875l-13.46875 0zm43.417847 -12.4375l0 -18.421875l45.703125 -17.96875l-45.703125 -17.765625l0 -18.296875l65.484375 28.3125l0 15.625l-65.484375 28.515625z" fill-rule="nonzero"/><path fill="#000000" fill-opacity="0.0" d="m408.04462 -6.742782l0 564.8504l-190.4252 0l0 -564.8504z" fill-rule="evenodd"/><path fill="#000000" d="m281.91962 147.95226l28.453125 -65.421875l15.75 0l28.3125 65.421875l-18.546875 0l-17.453125 -45.640625l-18.09375 45.640625l-18.421875 0zm15.8125 10.158417l15.625 0q0.265625 4.75 1.4375 7.15625q1.171875 2.40625 3.9375 4.15625q2.765625 1.765625 6.9375 2.421875q3.125 0.515625 10.875 0.515625q12.625 0 17.59375 1.171875q4.984375 1.171875 8.015625 4.234375q3.03125 3.0625 4.78125 8.921875q1.171875 3.96875 1.171875 12.5l0 3.453125l-15.5625 0q0 -7.234375 -0.8125 -9.28125q-0.8125 -2.046875 -2.46875 -3.03125q-1.65625 -0.96875 -5.703125 -0.96875q-4.09375 0 -15.546875 -0.59375q-6.453125 -0.3125 -10.453125 -1.6875q-4.0 -1.359375 -6.609375 -3.484375q-2.609375 -2.109375 -5.40625 -6.46875q-2.203125 3.828125 -5.171875 6.265625q-2.96875 2.453125 -7.203125 3.75q-4.21875 1.3125 -11.3125 1.703125q-10.8125 0.453125 -13.8125 0.453125q-4.296875 0 -5.984375 1.03125q-1.6875 1.046875 -2.5625 3.15625q-0.890625 2.125 -0.890625 9.15625l-15.625 0l0 -3.453125q0 -8.78125 1.40625 -13.46875q1.390625 -4.6875 4.65625 -7.921875q3.25 -3.21875 8.046875 -4.328125q4.78125 -1.109375 15.0625 -1.109375q11.96875 0 15.5625 -1.03125q5.203125 -1.4375 7.4375 -4.34375q2.25 -2.890625 2.578125 -8.875zm0 243.60426q-0.25 -4.75 -1.421875 -7.15625q-1.171875 -2.40625 -3.953125 -4.140625q-2.765625 -1.71875 -6.921875 -2.4375q-3.125 -0.515625 -10.8125 -0.515625q-12.625 0 -17.640625 -1.140625q-5.015625 -1.140625 -8.03125 -4.203125q-3.03125 -3.0625 -4.796875 -8.984375q-1.171875 -3.96875 -1.171875 -12.5l0 -3.453125l15.625 0q0 6.96875 0.890625 9.109375q0.875 2.15625 2.53125 3.15625q1.65625 1.015625 5.625 1.046875q3.96875 0.046875 15.171875 0.5625q6.765625 0.328125 10.828125 1.75q4.078125 1.4375 6.90625 3.8125q2.84375 2.375 4.984375 6.09375q3.125 -4.828125 6.125 -7.03125q4.296875 -3.0625 10.9375 -4.171875q4.5625 -0.71875 20.046875 -1.046875q4.890625 -0.0625 6.515625 -0.875q1.625 -0.8125 2.5 -2.9375q0.875 -2.109375 0.875 -9.46875l15.5625 0l0 3.453125q0 8.796875 -1.375 13.484375q-1.359375 4.6875 -4.65625 7.875q-3.28125 3.1875 -8.0625 4.328125q-4.78125 1.140625 -15.0625 1.140625q-11.921875 0 -15.5625 0.96875q-5.203125 1.4375 -7.453125 4.359375q-2.25 2.9375 -2.578125 8.921875l-15.625 0zm-28.3125 4.2453613l98.6875 23.625l0 13.734375l-98.6875 -23.890625l0 -13.46875zm12.4375 43.417847l18.421875 0l17.96875 45.703125l17.765625 -45.703125l18.296875 0l-28.3125 65.484344l-15.625 0l-28.515625 -65.484344z" fill-rule="nonzero"/></g></svg>